<svg width="455" height="355" viewBox="0 0 455 355" fill="none" xmlns="http://www.w3.org/2000/svg">
<path fill-rule="evenodd" clip-rule="evenodd" d="M341.048 197.455C338.46 216.865 335.872 236.275 333.284 255.684L331.194 271.359C330.93 273.337 331.179 277.238 330.174 279.009C329.819 279.633 328.886 279.93 328.2 280.298C325.839 281.566 323.477 282.834 321.116 284.102C301.14 294.826 281.164 305.551 261.189 316.276C242.018 326.568 222.847 336.861 203.677 347.153C201.693 348.219 198.484 350.998 196.342 350.265C194.307 349.57 192.226 347.853 190.378 346.77C186.83 344.691 183.282 342.612 179.734 340.533C158.266 327.952 136.799 315.37 115.331 302.789C106.474 297.598 97.6166 292.408 88.7592 287.217C86.3362 285.797 83.9122 284.377 81.4887 282.956C80.2213 282.213 80.0566 282.239 79.5576 280.979C77.6925 276.265 76.8287 270.866 75.509 265.975C74.0546 260.585 72.6001 255.196 71.1457 249.806C70.4973 247.401 70.8016 247.091 71.8595 244.769C73.9526 240.174 76.0456 235.58 78.1386 230.985C82.7844 220.787 87.4296 210.589 92.076 200.392C93.9547 196.268 98.4799 193.366 101.738 190.333L152.322 143.237C153.607 142.041 154.892 140.845 156.177 139.648C156.388 146.838 157.809 154.567 155.725 161.513C152.305 172.911 148.886 184.309 145.467 195.708C143.814 201.217 142.161 206.726 140.508 212.235C140.201 213.259 138.332 217.318 138.831 218.218C139.109 218.717 141.47 219.222 141.981 219.416C144.179 220.252 146.376 221.088 148.573 221.924C154.696 224.254 160.818 226.583 166.94 228.911C172.446 231.007 177.952 233.101 183.459 235.196C185.326 235.906 187.519 237.222 189.491 237.112C191.255 237.014 193.261 236.141 194.967 235.701C197.968 234.929 200.97 234.155 203.971 233.382C209.866 231.864 215.762 230.346 221.657 228.827C228.29 227.118 233.891 222.101 239.563 218.387C249.313 212.003 259.062 205.619 268.811 199.236C271.043 197.774 271.052 196.941 271.941 194.272C273.94 188.276 275.939 182.279 277.938 176.282C279.005 173.081 280.317 169.865 281.123 166.587C282.453 161.177 283.242 155.577 284.295 150.108C284.612 148.457 284.93 146.807 285.247 145.156C289.33 146.813 293.413 148.47 297.497 150.128C298.089 150.368 300.972 151.084 301.229 151.672C301.391 152.044 300.533 153.732 300.411 154.095C297.025 164.122 293.64 174.148 290.254 184.175C289.189 187.329 288.124 190.483 287.059 193.637C289.604 189.638 292.149 185.639 294.694 181.64C296.693 188.366 298.693 195.092 300.693 201.818C305.419 196.364 310.145 190.911 314.871 185.457C316.508 190.911 318.144 196.364 319.78 201.818C324.869 195.092 329.959 188.366 335.049 181.64C335.654 185.15 336.259 188.66 336.865 192.169C337.047 193.229 337.011 196.268 337.716 197.107C338.297 197.797 339.969 197.455 341.048 197.455Z" fill="#F0F0F0"/>
<path fill-rule="evenodd" clip-rule="evenodd" d="M18.7863 239.41C19.0726 248.547 18.8741 260.408 23.8743 268.441C24.6815 269.737 27.4153 273.776 27.7206 270.223C28.02 266.735 27.1617 263.281 28.0118 259.753C28.4667 257.865 29.9964 253.741 32.6113 255.446C33.9435 256.315 34.2947 258.461 34.8161 259.816C35.5872 261.82 36.451 263.793 37.263 265.782C40.0988 272.724 43.0371 281.01 49.3408 285.604C48.5157 279.617 46.2672 273.225 47.7789 267.173C48.2937 265.111 49.8545 261.345 52.5414 262.553C55.1601 263.73 56.8572 268.984 58.093 271.324C61.84 278.417 65.6721 285.377 69.8904 292.205C72.0123 295.64 74.3038 298.779 77.0802 301.716C78.816 303.554 80.9805 306.66 83.7165 306.934C83.7165 301.697 81.9932 296.637 80.4199 291.705C78.7277 286.403 77.1849 281.054 75.5238 275.742C74.083 271.133 72.9001 266.56 71.9409 261.834C71.5433 259.879 71.2292 257.855 69.5632 256.593C68.0656 255.459 65.7 254.919 64.0301 254.085C59.6455 251.894 55.1361 249.531 51.063 246.808C49.3904 245.69 47.9507 244.246 46.1996 243.243C44.2042 242.101 42.3413 241.139 40.4953 239.747C32.53 233.739 25.3495 226.348 20.5112 217.551C19.7259 221.085 18.6854 224.539 18.5703 228.182C18.4531 231.918 18.669 235.677 18.7863 239.41ZM84.3414 281.407C85.6153 279.255 87.5562 280.137 89.2664 281.174C91.92 282.783 94.5808 284.381 97.2481 285.97C102.676 289.204 108.003 292.607 113.306 296.04C124.101 303.028 135.273 308.747 146.653 314.662C157.653 320.377 168.218 327.179 178.524 334.055C181.001 335.708 183.46 337.399 185.838 339.191C187.949 340.781 189.638 343.015 191.86 344.431C194.175 345.906 195.765 344.71 197.979 343.622C200.747 342.262 203.632 341.122 206.462 339.896C217.881 334.945 229.332 329.806 240.44 324.187C251.481 318.603 261.943 312.168 272.522 305.777C277.56 302.733 282.513 299.497 287.482 296.341C292.771 292.984 298.247 290.469 303.795 287.614C306.249 286.35 308.423 284.635 310.945 283.487C313.595 282.28 316.395 281.414 318.768 279.672C319.832 278.892 320.73 277.958 321.946 277.406C322.944 276.953 324.077 276.876 325.063 276.395C327.069 275.416 327.643 273.428 328.032 271.36C330.53 258.088 331.858 244.449 333.306 231.029C334.119 223.483 335.027 215.966 336.152 208.459C336.659 205.074 335.639 202.452 335.104 199.16C334.479 195.315 334.232 191.389 333.813 187.518C331.837 191.179 330.127 195.022 327.613 198.363C325.759 200.825 322.593 204.317 319.18 204.235C313.875 204.106 314.117 195.007 313.904 191.396C311.487 193.552 310.754 197.066 308.748 199.571C306.917 201.859 304.425 204.697 301.613 205.721C295.691 207.878 296.261 196.886 296.587 193.769C296.75 192.205 297.633 189.732 295.539 190.445C293.61 191.101 291.733 193.823 290.111 195.071C287.309 197.23 284.235 199.023 281.36 201.084C277.793 203.64 273.944 205.488 270.307 207.869C268.032 209.358 265.551 209.692 263.071 210.787C259.438 212.392 256.229 214.784 252.771 216.708C245.923 220.516 238.326 223.931 230.836 226.227C228.412 226.97 225.183 229.064 223.344 226.912C222.212 225.588 221.468 223.565 220.508 222.081C219.292 220.202 218.001 218.372 216.661 216.58C211.895 210.209 206.607 204.194 200.735 198.822C193.902 192.571 186.431 186.947 178.439 182.262C175.006 180.249 160.669 171.228 157.517 177.577C160.107 177.416 162.352 178.363 164.566 179.549C165.107 179.839 167.894 181.829 167.242 180.075C168.052 180.226 168.762 181.282 169.375 181.752C170.434 182.563 172.041 183.5 173.268 184.172C174.481 184.836 175.98 184.998 177.085 185.803C177.489 186.097 177.734 186.574 178.119 186.892L179.222 186.9C179.388 187.512 179.553 188.122 179.718 188.734C180.342 186.734 181.232 189.335 182.274 190.18C182.901 190.687 183.893 191.21 184.631 191.538C185.182 191.783 185.267 191.214 185.802 191.646C186.278 192.031 186.581 192.878 187.093 193.36C187.72 193.95 188.524 194.409 189.223 194.913C190.564 195.878 191.982 196.636 193.34 197.551C195.167 198.782 196.125 200.9 197.898 202.187C198.739 202.797 200.044 202.869 200.498 203.259C201.639 204.24 201.263 205.725 203.39 205.79C203.196 206.1 203.08 206.436 203.04 206.799C203.547 206.712 203.997 206.502 204.392 206.168C204.303 208.29 206.389 209.047 207.64 210.353C208.361 211.106 209.259 212.164 209.767 213.07C209.852 213.222 210.013 214.431 210.048 214.447C210.241 214.54 211.416 213.508 211.305 213.594C211.633 215.554 213.529 217.407 214.36 219.221C214.797 220.177 215.242 221.714 216.104 222.386C216.338 222.569 217.06 222.378 217.656 223.014C218.093 223.479 218.598 224.34 218.776 224.958C218.894 225.371 218.752 226.439 218.922 226.686C219.234 227.139 219.719 226.684 220.208 227.019C221.111 227.637 221.134 228.604 222.455 228.731C221.544 230.944 216.045 231.626 214.046 232.255C208.394 234.034 202.464 235.811 197.18 238.536C195.813 239.24 194.52 239.821 194.278 241.444C193.941 243.703 195.092 246.707 195.312 248.989C195.907 255.151 196.028 261.494 195.904 267.682C195.786 273.543 195.596 279.46 195.323 285.314C195.07 290.742 193.976 296.062 193.385 301.452C193.223 302.931 193.331 309.602 190.787 309.266C188.664 308.986 190.005 304.429 190.045 303.123C190.134 300.232 189.525 297.281 189.551 294.365C189.563 292.962 188.95 291.755 188.891 290.413C188.832 289.087 189.491 288.04 189.294 286.665C189.104 285.347 185.206 277.762 188.95 278.65C188.73 277.566 188.538 276.473 188.249 275.405C187.849 275.765 187.526 276.185 187.283 276.665C186.949 274.335 187.061 272.01 186.854 269.679C186.761 268.623 186.333 267.466 186.479 266.402C186.451 265.96 186.508 265.527 186.647 265.103C186.877 264.859 187.163 264.731 187.501 264.719C187.68 264.136 187.725 263.975 187.409 263.403C187.273 263.016 187.004 262.773 186.601 262.677C185.833 262.586 185.745 262.145 186.338 261.354C186.029 259.792 185.989 258.806 186.212 257.247C186.4 255.938 185.71 253.403 186.413 252.237C187.233 250.874 187.641 252.196 187.794 250.307C187.827 249.907 187.853 249.074 187.692 248.675C187.516 248.241 186.986 248.419 186.919 248.265C186.459 247.215 186.429 245.148 188.055 245.327C187.991 244.577 187.928 243.828 187.864 243.078C186.689 244.431 187.1 243.286 186.433 242.534C185.536 241.52 184.658 241.346 183.375 240.945C179.955 239.878 176.66 238.273 173.318 236.971C166.242 234.213 159.034 231.751 152.165 228.492C137.717 221.637 123.556 214.196 109.02 207.522C110.058 205.595 109.412 205.501 108.653 203.691C107.64 204.395 107.853 203.904 107.132 203.861C107.198 203.257 107.01 203.075 106.57 203.315C106.219 203.422 105.86 203.46 105.491 203.429C104.591 203.583 103.856 204.078 103.038 204.266C102.77 204.464 102.475 204.613 102.153 204.712C101.864 204.646 101.617 204.504 101.413 204.283C100.089 204.529 99.6432 205.526 99.5848 206.97C99.575 207.221 100.344 207.479 100.124 207.816C99.7392 208.407 98.7041 208.266 98.1119 208.341C98.2417 208.954 98.3715 209.566 98.5007 210.179C95.9022 208.98 96.58 212.733 95.792 213.966C95.5722 214.31 95.083 214.036 94.8284 214.434C94.4968 214.954 94.5966 215.691 94.3136 216.209C93.6739 217.381 93.0336 217.239 92.3961 218.581C89.0646 225.588 84.6326 232.116 81.4348 239.274C79.9122 242.681 78.539 246.146 76.9493 249.523C75.4867 252.631 74.6507 255.273 75.6934 258.666C78.1114 266.54 80.6974 274.556 83.8664 282.161C84.0246 281.909 84.1827 281.658 84.3414 281.407ZM253.012 340.174C253.239 340.56 253.466 340.946 253.693 341.333C254.197 338.434 252.854 339.779 253.012 340.174ZM263.678 334.747C264.405 334.529 264.091 333.342 264.067 332.834C263.608 333.407 263.157 333.991 262.774 334.621C263.075 334.663 263.377 334.705 263.678 334.747ZM292.91 323.604C292.147 323.176 291.597 322.868 290.732 322.383C291.612 324.098 291.612 324.098 292.91 323.604ZM338.898 172.579C340.065 175.442 336.508 193.119 339.819 193.696C340.294 192.145 340.354 187.873 342.32 187.363C344.759 186.73 344.519 191.128 344.852 192.488C349.86 189.004 352.084 182.275 354.477 176.943C357.526 170.146 359.926 163.077 362.217 155.995C364.177 149.94 365.797 143.778 367.777 137.733C369.021 133.937 370.362 130.131 371.198 126.217C371.38 125.367 372.095 123.211 371.487 122.403C370.604 121.228 367.426 122.574 366.402 122.883C359.758 124.882 352.866 125.742 346.04 126.904C338.456 128.194 330.889 129.527 323.259 130.527C321.352 130.777 319.445 131.014 317.536 131.244C316.298 131.393 314.424 131.244 313.249 131.799C310.869 132.922 310.362 137.219 309.478 139.448C306.18 147.766 302.299 155.821 298.827 164.063C295.699 171.488 293.328 179.387 288.831 186.148C292.185 184.661 296.435 176.802 300.182 181.332C301.793 183.28 301.386 185.846 301.258 188.178C301.071 191.548 301.013 194.943 301.013 198.319C304.68 197.366 307.143 193.203 309.069 190.255C311.698 186.227 313.354 182.432 314.519 177.816C315.023 175.816 316.36 175.767 317.549 174.57C318.312 173.801 318.696 172.765 319.791 173.884C321.168 175.289 320.252 179.183 320.014 180.843C319.45 184.793 317.598 190.872 319.398 194.583C321.827 199.592 328.336 186.989 329.098 185.168C329.486 184.242 336.41 166.472 338.898 172.579ZM343.445 86.7362C343.035 86.7989 342.626 86.8616 342.216 86.9243C342.546 87.2161 343.234 88.2391 343.795 87.9686C343.679 87.558 343.562 87.1473 343.445 86.7362ZM321.724 82.0751C321.852 82.2164 321.982 82.3571 322.11 82.4983C322.698 81.7632 322.49 80.6916 322.49 79.8414C321.713 80.3109 321.523 81.25 321.724 82.0751ZM319.969 90.2313V92.634C321.597 91.9284 321.629 91.5641 319.969 90.2313ZM317.991 93.2863C319.132 92.9733 319.269 92.7208 319.108 90.9675C318.635 91.9496 318.324 92.597 317.991 93.2863ZM311.424 111.081C311.903 112.311 314.698 109.379 314.595 108.502C314.497 107.665 314.068 107.415 313.476 107.953C313.28 108.132 313.571 108.776 313.446 108.999C312.995 109.809 312.086 110.471 311.424 111.081ZM311.393 118.493C312.094 120.241 313.342 117.488 311.512 117.413C311.392 117.765 311.352 118.124 311.393 118.493ZM312.752 115.736C313.023 115.375 313.286 115.008 313.542 114.635C312.6 114.826 311.851 116.199 310.857 115.283C310.975 116.68 311.968 116.719 312.752 115.736ZM373.691 93.0261C375.207 91.3721 365.324 90.2111 364.132 89.927C355.481 87.8639 347.313 84.8787 339.224 81.2157C335.365 79.4684 331.526 77.6998 327.757 75.7628C326.13 74.9268 323.9 74.2178 322.541 72.9624C321.571 72.0664 321.609 71.3886 320.348 70.8547C319.278 70.4026 319.224 70.8296 318.734 70.0116C318.44 69.5208 318.106 67.7222 318.279 67.19C318.748 65.7377 319.443 66.9151 320.417 65.9144C321.119 65.1929 320.949 63.1414 320.757 62.2917C320.509 62.6964 320.366 63.1359 320.328 63.6093C319.27 63.0879 319.697 61.2976 318.54 61.0042C317.321 60.6955 317.447 61.6449 317.129 62.6157C316.208 61.2632 316.947 60.1098 317.445 58.789C314.911 58.3145 312.188 57.8548 309.676 58.6979C307.859 59.307 306.305 60.8051 304.387 61.0947C302.509 61.3777 302.148 60.4872 300.763 59.5835C299.639 58.8501 298.674 59.7139 298.095 59.1598C298.452 61.0303 301.518 60.7746 301.141 63.1119C300.971 64.1639 299.682 65.109 299.095 65.9275C298.358 66.9549 297.771 68.0909 297.269 69.2486C295.317 73.7521 294.483 78.9781 293.664 83.794C291.643 95.6814 291.387 107.803 289.486 119.729C288.58 125.409 287.672 131.093 287.201 136.829C287.084 138.263 286.208 141.516 286.924 142.896C287.53 144.06 288.878 144.064 290.062 144.346C292.377 144.896 294.551 145.644 296.773 146.472C298.764 147.214 299.342 147.669 300.621 145.796C301.857 143.984 302.468 141.823 303.353 139.836C304.479 137.304 305.841 134.86 307.147 132.418C304.58 132.418 303.103 131.032 303.171 128.424C303.245 125.535 305.621 124.849 306.601 122.475C307.554 123.712 307.634 123.747 308.313 122.572C309.089 121.229 309.613 118.771 310.088 117.248C309.749 117.61 309.409 117.973 309.069 118.335C308.212 117.156 309.554 115.297 310.003 114.187C310.696 112.473 310.818 110.619 311.475 108.909C311.833 107.976 312.663 107.242 312.867 106.268C313.003 105.616 312.458 104.996 312.588 104.335C312.812 103.183 314.115 101.947 314.52 100.776C315.144 98.9742 315.82 97.3878 316.594 95.6323C317.64 93.2563 317.397 90.763 317.588 88.2342C317.787 85.6122 318.627 83.1036 318.923 80.4931C319.128 78.6896 318.487 76.4188 319.851 74.9742C320.011 77.3754 319.323 77.3383 321.579 77.7702C324.147 78.2615 326.01 80.1751 328.439 80.7461C328.939 80.8639 329.304 78.6771 329.109 81.6601C330.274 80.8001 332.76 81.8679 331.832 82.3783C332.535 83.1304 333.92 82.6101 334.151 83.7368C336.54 81.4142 340.371 89.32 343.216 85.1961C343.686 87.991 345.71 89.6434 348.426 90.0131C349.793 90.1985 350.635 90.6539 351.847 91.0635C352.093 91.1458 352.183 91.4997 352.475 91.5952C352.92 91.7402 353.573 91.3023 353.894 91.3874C354.546 91.5608 355.272 92.4197 356.183 92.5904C357.228 92.7862 358.368 92.6962 359.414 92.5751C360.722 92.4235 361.297 92.2687 362.578 92.6995C363.729 93.0872 364.963 94.173 366.032 92.9907C367.711 95.8957 371.714 95.1857 373.691 93.0261ZM296.065 57.9699C297.335 57.8177 296.453 56.7248 295.865 56.3966C294.266 55.5055 294.693 58.1346 296.065 57.9699ZM366.425 68.3946C358.967 57.635 346.21 50.2424 334.986 44.0222C328.855 40.6247 322.597 37.3314 316.16 34.5507C312.96 33.1688 309.722 31.8403 306.454 30.6264C304.709 29.978 302.942 29.3885 301.175 28.8017C300.686 28.6397 299.797 28.1423 299.286 28.1909C299.374 28.1822 298.014 28.5519 298.282 28.6681C297.406 28.2869 296.989 27.2927 295.96 26.8951C294.802 26.448 293.328 26.2631 292.089 26.2227C290.992 26.1867 290.043 26.6399 288.998 26.6754C288.311 26.6983 287.728 26.3722 287.055 26.3242C286.711 26.3002 286.742 26.815 286.534 26.845C286.444 26.8581 285.528 26.5139 285.52 26.5199C285.186 26.7343 284.89 27.5708 284.589 27.8975C283.724 28.8344 282.454 29.4872 281.301 29.9802C279.897 30.58 276.473 31.1832 278.06 33.4027C276.933 33.2408 276.408 34.2595 277.819 34.5174C278.584 34.6576 278.911 33.9573 279.478 33.4796C280.79 32.378 283.973 30.8096 285.863 30.8805C286.925 30.9203 287.747 31.7269 288.727 32.0197C289.691 32.3077 290.169 31.861 291.016 31.9319C292.005 32.0143 292.642 32.8514 293.585 33.0003C294.468 33.1399 294.959 32.5378 295.749 32.5798C296.687 32.6294 297.595 33.4442 298.491 33.7179C299.915 34.1531 300.961 34.4498 302.352 35.1713C305.047 36.5701 308.056 37.1012 310.834 38.3054C313.054 39.2679 315.572 39.7745 317.627 40.839C319.912 42.0219 322.207 43.2004 324.445 44.4857C326.061 45.4144 329.348 45.734 331.13 45.4979C331.155 48.7798 332.771 46.479 334.399 47.9165C334.014 48.2562 333.576 48.506 333.088 48.6658C334.852 49.3704 336.483 50.2473 338.192 51.0571C339.958 51.8947 341.843 52.0791 343.004 53.6633C344.072 55.1232 343.71 54.3701 345.305 54.9449C346.037 55.2088 346.674 56.0137 347.201 56.5542C348.107 57.4834 348.308 58.8904 348.826 56.9806C348.977 57.2135 349.571 58.6963 349.687 58.7339C350.335 58.0457 350.428 58.8615 350.791 59.1533C350.6 59.7875 350.873 60.203 351.609 60.3999C351.982 60.677 352.359 60.9485 352.74 61.2141C354.123 62.1734 355.883 62.9963 356.857 64.4256C357.576 64.0019 357.842 63.2706 357.404 62.524C358.777 63.7892 360.415 65.0888 360.786 67.0362C360.957 66.8715 361.156 66.7526 361.382 66.6795C361.939 67.0558 361.213 68.1771 360.86 68.4295C359.319 67.8308 361.245 68.0478 360.209 68.1443C359.914 68.1716 359.611 68.3925 359.285 68.3963C358.33 68.4088 357.433 68.363 356.487 68.2174C354.399 67.8957 352.347 67.2963 350.326 66.6954C348.125 66.0409 345.924 65.3876 343.771 64.5849C341.999 63.9239 340.256 63.1872 338.514 62.4531C337.818 62.1597 337.123 61.8625 336.426 61.5713C335.102 61.0183 334.404 60.1098 334.589 61.6662C333.535 61.4912 332.621 60.0013 331.812 59.3932C330.673 58.5387 329.393 57.9012 328.044 57.4649C327.497 57.2882 327.096 57.0635 326.531 57.0619C326.254 57.0613 326.088 57.8423 325.914 57.7997C324.703 57.5063 325.255 56.8356 324.711 55.8692C323.52 53.7571 320.313 52.589 318.344 51.3892C317.094 50.6274 316.207 49.6027 315.053 48.759C314.513 48.3647 314.121 48.1902 313.556 48.0234C313.123 47.8952 312.591 48.8899 312.311 47.8903C313.318 47.4786 314.148 46.9709 315.117 46.6704C315.803 46.4571 314.981 45.728 316.067 46.1621C316.503 46.3366 316.653 47.1808 316.814 47.5342C318.027 46.4506 321.439 47.5735 322.878 48.0272C322.977 48.0583 323.422 47.8238 323.631 47.8379C324.462 47.8936 325.041 49.0121 325.588 49.4942C327.042 50.7752 328.62 51.3107 330.411 52.042C329.934 49.438 326.432 48.3713 324.387 47.3739C321.399 45.9156 318.616 44.0544 315.344 43.2702C313.165 42.7472 310.278 42.3267 309.336 44.8604C308.773 46.3792 308.702 50.1524 310.608 50.8531C310.809 50.1442 310.165 49.5383 309.971 48.9232C311.868 49.6474 312.18 51.9264 313.621 53.1158C314.431 53.7838 314.72 53.9981 315.112 54.6438C315.501 55.2852 315.687 55.8834 316.599 56.5656C318.088 53.4021 317.836 57.7354 318.591 58.2791C318.288 58.0604 319.822 58.699 319.639 58.6314C319.71 58.6576 320.378 57.5745 320.812 57.5974C321.601 57.6389 321.449 58.5076 321.83 58.9449C323.118 60.425 324.783 61.3957 326.857 61.1629C326.906 62.2159 326.581 63.474 328.019 63.57L328.207 61.2354C328.99 62.0272 330.02 62.7793 330.657 63.696C331.382 64.7392 331.304 65.3816 332.507 66.0769C333.763 66.8039 336.437 68.236 337.932 68.3597C337.562 67.8351 337.628 67.3612 338.127 66.9391C338.879 67.7146 339.989 67.791 340.79 68.4912C338.011 69.6522 342.925 69.5922 343.548 69.7236C343.966 69.812 344.33 70.1921 344.753 70.2777C345.314 70.3917 345.386 69.8016 345.869 69.9887C346.576 70.2625 346.289 71.0352 347.029 71.4235C347.56 71.7027 348.461 71.6989 349.06 71.9639C350.488 72.5965 353.531 73.9975 354.496 72.2982C354.985 75.2136 359.981 73.4391 361.83 73.2427C364.363 72.9739 368.774 71.785 366.425 68.3946ZM355.788 38.5655C355.429 38.2595 355.07 38.2819 354.712 38.6331C355.211 35.9947 351.347 34.7137 349.662 33.592C347.426 32.1043 344.794 29.2178 341.868 29.4463C342.367 29.816 342.865 30.1857 343.364 30.5555C342.652 30.6476 341.941 30.7398 341.23 30.832C341.631 31.4209 342.032 32.0094 342.434 32.5978C343.091 28.9789 346.517 33.5478 347.508 34.2136C348.507 34.8839 349.502 35.3834 350.39 36.2009C351.269 37.0107 352.062 38.469 353.516 37.7404C353.648 39.8072 355.31 39.2466 356.459 40.3913C356.507 39.6731 356.096 39.1654 355.788 38.5655ZM340.608 28.2481C337.072 26.9235 333.993 24.4744 330.66 22.7249C327.477 21.0536 324.23 19.5529 320.994 17.9937C319.352 17.2024 316.345 15.1563 314.469 16.199C311.936 17.6071 315.422 18.0614 316.328 18.5489C316.662 16.3806 317.835 18.3449 317.135 19.5512C319.067 18.7169 323.281 21.9813 325.124 22.8814C325.541 23.0854 325.354 23.2032 325.829 23.4431C325.945 23.502 327.155 23.7774 327.501 23.8936C329.236 24.4744 330.38 24.013 331.128 26.1077C331.284 25.6147 331.441 25.1211 331.597 24.6276C332.684 27.0669 335.986 28.1347 338.097 29.5771C338.641 29.9491 340.196 31.3915 340.886 31.0932C341.847 30.6776 341.461 28.5672 340.608 28.2481ZM276.81 35.6026C275.317 35.7013 276.757 36.3977 276.347 36.858C276.393 36.8062 275.448 37.6128 275.571 37.3914C275.405 37.6891 275.004 37.6782 274.799 38.2835C274.092 40.3651 277.176 42.5159 278.216 43.6972C280.238 45.9947 281.407 48.9041 283.514 51.128C284.466 52.1325 285.413 52.8262 286.732 53.2008C287.655 53.4632 288.632 53.1823 289.48 54.0701C290.164 54.7851 290.009 55.1913 290.764 55.5714C292.095 56.2417 292.681 55.6538 293.976 57.1022C295.09 54.0734 291.889 54.0783 290.218 52.3856C287.912 50.0488 285.386 47.6912 283.224 45.1914C281.303 42.9702 280.533 41.0228 279.622 38.3244C279.334 37.4737 279.021 35.6495 278.229 35.1156C276.995 34.2845 277.735 35.541 276.81 35.6026ZM269.468 114.285C265.552 109.905 260.694 105.971 255.428 103.333C253.546 102.39 250.867 101.152 248.916 102.604C247.003 104.027 247.415 106.867 248.186 108.799C248.925 108.508 248.227 105.794 248.611 105.123C249.447 103.659 251.252 104.436 252.48 104.927C253.919 105.502 255.203 106.137 256.342 107.18C256.804 107.603 257.69 107.982 257.986 108.272C258.431 108.087 258.693 108.222 258.772 108.676C258.68 108.954 258.691 109.228 258.805 109.497C258.87 109.583 259.448 109.232 259.531 109.302C259.906 109.623 260.257 110.001 260.626 110.299C261.367 110.899 261.998 111.182 262.68 112.018C263.998 113.632 265.74 114.579 267.064 116.117C267.363 116.465 267.721 117.357 267.788 117.435C268.457 118.216 269.449 118.833 270.204 119.66C271.509 121.088 272.902 122.047 274.408 123.272C275.057 123.799 275.813 124.366 276.244 125.099C276.441 125.434 276.551 127.266 276.558 127.274C278.035 128.892 277.748 125.639 277.637 125.231C276.437 120.841 272.383 117.546 269.468 114.285ZM277.529 143.966C277.345 144.655 277.194 145.225 277.007 145.925C278.178 144.965 278.178 144.965 277.529 143.966ZM278.793 146.224C279.224 146.657 279.656 147.088 280.092 147.516C281.05 146.504 278.618 146.05 278.793 146.224ZM279.401 128.794C279.859 130.647 281.536 132.893 282.689 134.355C282.562 134.194 283.673 134.519 283.799 134.592C284.21 134.83 283.227 136.371 284.65 135.682C285.155 135.968 284.161 137.132 284.847 137.653C286.829 133.134 281.415 129.22 279.319 125.866C278.294 126.807 279.144 127.755 279.401 128.794ZM292.281 153.222C290.835 153.594 290.083 153.36 289.107 151.94C288.52 151.087 288.306 149.576 286.964 150.852L286.727 149.211C284.811 149.997 284.972 152.837 284.135 154.411C283.728 152.63 282.763 147.656 279.809 148.454C276.492 149.35 282.012 155.053 282.525 156.451C283.652 154.701 283.208 156.328 284.068 156.575C284.806 156.787 285.959 156.244 286.856 156.293C289.583 156.441 291.98 157.668 294.471 158.707C295.102 157.006 295.733 155.305 296.364 153.604C294.897 153.717 291.863 149.813 291.433 152.651C292.521 152.461 292.827 152.509 293.357 153.5C293.019 153.328 292.66 153.235 292.281 153.222ZM286.158 175.423C286.162 175.409 283.336 175.584 283.084 175.492C281.15 174.786 281.865 172.592 281.47 171.042C280.673 171.775 281.095 173.112 280.849 174.061C280.561 175.176 279.725 176.125 279.648 177.318C279.472 180.011 281.682 179.413 283.357 180.285C284.789 181.03 284.947 181.967 286.156 179.959C286.484 179.416 287.187 178.001 287.115 177.306C287.044 176.618 285.954 176.046 286.158 175.423ZM283.88 187.078L284.662 186.203C282.333 186.916 283.706 185.844 283.171 184.379C281.384 185.569 279.926 186.792 278.512 184.409L276.069 194.264C277.71 194.65 279.827 192.114 280.952 191.243C281.602 190.74 285.21 188.801 283.044 188.236C283.323 187.85 283.602 187.464 283.88 187.078ZM267.932 156.134C269.288 157.424 270.655 158.146 272.131 159.16C273.427 160.05 272.98 161.071 274.103 162.064C274.849 162.724 276.597 163.396 277.518 163.899C279.159 164.795 280.628 164.966 282.316 163.963C281.857 167.661 284.39 167.95 287.542 168.683C289.046 169.032 289.936 169.566 291.019 168.189C291.762 167.247 292.052 165.54 291.129 164.678C289.662 163.308 285.756 163.781 283.874 162.919C282.447 162.266 280.992 158.585 279.231 159.924C280.14 158.477 279.081 158.087 278.291 157.054C277.426 155.923 276.894 154.6 275.998 153.477C274.297 151.344 271.685 149.198 269.268 147.912C267.142 146.78 266.026 147.581 265.707 149.958C265.547 151.153 265.553 152.933 266.222 153.993C266.435 154.331 267.139 154.335 267.353 154.652C267.724 155.207 267.383 155.612 267.932 156.134ZM242.981 127.453C241.285 128.766 241.45 131.526 241.183 133.405C240.806 136.054 241.079 138.617 241.119 141.315C241.162 144.141 242.549 145.982 243.201 148.631C243.927 151.579 244.863 153.139 246.49 155.612C244.726 155.89 247.352 161.16 247.785 161.842C248.255 162.583 252.046 165.996 250.421 165.996C251.317 167.178 252.293 168.391 253.187 169.541C253.538 169.994 254.155 170.171 254.432 170.491C254.997 171.141 255.031 171.72 255.435 172.478C256.049 173.628 256.25 173.321 257.057 174.155C257.614 174.732 257.979 175.492 258.526 176.045C260.289 177.824 260.513 176.367 261.499 174.996C261.65 175.363 261.918 175.593 262.304 175.686C262.612 174.136 260.488 172.569 259.594 171.626C258.131 170.082 256.794 168.381 255.501 166.692C252.73 163.073 250.241 159.228 248.276 155.11C246.187 150.727 244.517 145.983 243.65 141.202C242.989 137.557 242.361 131.305 247.231 130.378C250.773 129.704 254.678 131.856 257.597 133.599C259.377 134.66 261.166 135.715 262.861 136.909C264.701 138.203 266.291 140.036 268.288 141.075C267.196 140.506 270.8 142.217 270.248 141.736C270.507 141.96 270.284 142.647 270.454 142.957C270.677 143.36 271.45 143.758 271.797 144.018C272.713 144.707 274.177 145.411 274.594 146.547C280.405 142.401 268.848 135.042 265.886 133.167C260.01 129.45 249.785 122.186 242.981 127.453ZM227.306 87.1343C227.361 84.1491 224.93 80.0737 223.288 77.6393C222.485 76.4477 221.202 76.4952 220.731 75.0898C220.46 74.2805 220.816 73.432 220.735 72.6194C220.626 71.5205 220.149 70.6393 219.6 69.6947C214.63 61.1563 208.592 53.5989 202.161 46.1496C198.989 42.4772 195.983 38.6636 192.563 35.2138C191.134 33.773 187.295 28.5933 185.098 29.1114C183.935 29.3857 183.258 31.1608 182.733 32.0666C181.865 33.5647 180.91 34.9679 179.854 36.3454C177.069 39.9823 173.857 43.1747 170.063 45.7526C167.694 47.3635 165.3 48.9292 162.984 50.617C161.077 52.006 158.193 53.594 156.832 55.5442C155.469 57.4949 157.47 59.1467 158.563 60.7664C160.262 63.2853 161.825 65.8953 163.532 68.4116C164.21 67.924 164.035 66.9337 164.499 66.3092C164.911 65.7557 165.494 65.5305 166.064 65.1886C167.155 64.5347 168.226 63.7352 169.212 64.8308C170.936 66.7483 168.565 71.2806 166.008 70.7832C165.707 72.6756 170.812 75.7922 172.091 76.8338C176.018 80.0285 180.068 82.8059 185.255 83.0949C187.354 83.2116 189.538 83.0524 191.532 82.35C192.488 82.0135 193.544 81.5516 194.277 80.8181C195.153 79.9401 195.377 78.6335 196.228 77.7642C196.966 77.01 197.979 76.8938 198.716 76.1369C199.455 75.3794 199.819 74.1829 200.119 73.2018C200.704 71.285 200.815 69.2634 201.378 67.3421C201.717 66.1865 201.995 64.6416 203.099 65.7519C204.703 67.365 203.897 72.4373 203.487 74.37C202.9 77.1272 201.523 79.35 200.08 81.7223C198.516 84.2958 197.939 86.6827 197.658 89.6603C197.134 95.2342 195.534 100.583 193.045 105.598C191.998 107.71 190.743 109.695 189.612 111.758C189.083 112.721 187.899 116.005 186.462 115.987C184.166 115.959 187.437 109.264 187.891 108.14C190.406 101.915 192.808 95.3717 193.347 88.6312C189.741 89.56 185.812 90.4412 182.078 89.8528C184.488 95.2419 181.971 100.608 182.279 106.155C182.433 108.937 182.544 111.503 182.487 114.277C182.436 116.709 183.534 119.14 184.484 121.339C186.37 125.707 188.744 131.095 192.246 134.441C195.174 137.238 199.09 137.456 202.916 136.812C211.618 135.346 217.336 128.657 220.989 121.059C223.335 116.178 225.129 110.968 226.242 105.667C227.532 99.5326 227.191 93.3566 227.306 87.1343ZM216.004 45.7913C224.125 39.9152 212.324 33.2424 206.317 34.1509C204.908 34.3636 202.315 34.946 202.447 36.7849C202.555 38.2879 205.062 39.9632 206.025 40.8908C208.77 43.5379 211.563 49.0039 216.004 45.7913ZM156.925 176.356C157.204 176.106 159.477 176.719 158.576 175.374C157.828 174.257 155.754 175.657 155 175.944C155.621 176.374 156.161 177.038 156.925 176.356ZM190.741 247.424C191.439 247.51 192.169 245.628 189.653 247.034C190.015 247.164 190.378 247.294 190.741 247.424ZM190.813 278.106C190.726 278.949 190.468 279.506 191.068 280.119C191.574 279.495 191.64 278.614 190.813 278.106ZM189.792 290.783C189.866 291.242 189.94 291.701 190.013 292.16C190.594 291.866 191.175 291.572 191.756 291.277C191.102 291.113 190.446 290.948 189.792 290.783ZM189.081 280.093C188.215 280.417 188.618 279.381 187.989 279.236C187.764 280.314 188.041 281.237 188.66 282.126C188.719 281.916 189.036 280.109 189.081 280.093ZM166.948 203.595C168.163 203.44 168.347 204.724 169.253 205.222C169.838 205.543 171.618 205.302 171.95 205.918C171.511 206.044 171.072 206.171 170.634 206.298C171.638 206.839 172.642 207.38 173.646 207.921C171.231 207.921 168.715 206.768 166.316 207.106C165.303 207.25 164.559 207.592 163.923 208.417C163.537 208.917 163.198 209.723 163.136 210.336C163.069 210.999 163.586 211.457 163.494 211.773C162.413 211.803 162.541 213.576 162.784 214.298C163.31 215.865 165.4 218.319 167.273 217.325C166.49 218.437 166.689 219.072 167.848 219.717C167.743 219.349 167.665 218.706 168.258 218.77C168.41 219.386 168.352 220.364 168.855 220.828C169.418 221.348 169.921 220.741 170.46 221.079C171.098 221.48 170.906 222.11 171.409 222.545C172.073 223.12 172.168 222.711 172.962 222.823C174.164 222.993 173.397 222.246 174.36 223.22C174.693 223.556 174.637 224.43 175.177 224.922C176.214 225.866 178.982 226.85 179.975 225.639C182.365 229.426 189.526 230.334 192.859 227.345C198.175 222.578 188.262 212.884 184.99 209.811C181.705 206.728 178.057 204.064 174.366 201.494C172.268 200.033 170.116 198.708 167.918 197.406C166.562 196.603 164.86 195.137 163.194 195.277C161.699 195.404 160.423 196.563 158.849 196.793C157.712 196.959 155.502 197.232 156.937 198.776C157.608 199.497 160.244 200.663 161.142 200.838C161.669 200.941 162.225 200.744 162.748 200.851C163.632 201.032 164.24 201.779 165.202 201.684C164.897 203.112 165.454 203.785 166.948 203.595ZM151.216 150.571C151.215 151.689 153.255 151.41 153.681 151.03C154.382 150.406 154.407 148.539 154.667 147.69C153.481 147.988 151.217 149.08 151.216 150.571ZM167.646 113.707C163.362 110.186 158.857 106.957 154.095 104.114C152.39 103.096 149.982 101.042 147.864 101.298C146.976 101.406 145.139 102.427 145.808 103.552C145.933 103.762 146.922 103.847 147.227 104C147.573 104.172 147.845 104.649 148.166 104.885C150.391 106.517 153.064 107.52 155.297 109.191C157.131 110.564 158.842 112.1 160.816 113.277C162.711 114.407 164.691 115.122 166.489 116.373C166.454 116.348 168.829 117.202 168.363 117.357C170.448 116.66 168.246 114.201 167.646 113.707ZM139.082 112.396C136.537 111.381 134.047 110.15 131.382 109.469C130.053 109.128 128.688 108.873 127.311 109.026C127.077 108.616 126.766 108.526 126.376 108.754C126.073 109.221 125.672 109.579 125.175 109.83C124.416 110.413 121.621 111.176 122.18 112.465C122.549 113.317 125.351 113.388 126.12 113.58C128.438 114.157 130.6 115.456 132.988 115.775C133.212 115.805 133.944 115.534 133.952 115.535C134.884 115.739 135.66 116.705 136.46 117.169C138.184 118.166 140.66 118.334 141.897 120.056C137.89 122.772 134.413 120.078 130.89 118.027C128.78 116.799 126.514 115.913 124.208 115.125C123.003 114.714 121.787 114.286 120.565 113.925C120.06 113.741 119.54 113.608 119.007 113.527C118.51 113.429 118.155 113.609 117.941 114.069C116.464 114.02 116.338 113.094 115.449 114.822C114.196 117.258 116.113 117.135 117.915 117.434C120.414 117.849 122.955 118.782 125.417 119.401C125.985 119.544 130.964 120.698 130.97 120.739C131.196 122.311 116.905 120.856 115.678 120.62C113.513 120.203 111.191 119.02 108.949 119.306C107.228 119.524 103.308 122.049 106.053 123.727C106.594 121.14 108.449 123.276 109.417 124.149C110.708 125.312 112.556 125.2 114.326 125.655C116.746 126.277 122.942 128.61 124.661 125.635C124.117 128.242 133.993 126.918 135.351 126.831C136.675 126.747 138.383 127.028 139.663 126.651C140.497 126.405 140.961 125.862 141.746 125.74C141.939 125.947 142.17 126.089 142.438 126.163C142.836 125.962 143.195 125.706 143.516 125.396C146.161 124.18 150.253 123.508 148.784 119.636C147.397 115.983 142.444 113.736 139.082 112.396ZM114.291 114.653C114.225 114.425 114.159 114.198 114.094 113.97C114.086 114.668 112.422 114.965 112.614 115.869C113.04 117.87 114.96 114.863 115.124 114.536C114.846 114.575 114.569 114.614 114.291 114.653ZM104.136 117.977C103.943 118.797 101.731 120.542 102.279 120.944C103.151 119.759 105.562 120.297 104.136 117.977ZM141.446 192.766C140.637 191.16 138.189 193.894 138.447 191.152C137.116 191.273 137.947 192.286 136.352 191.841C135.754 191.674 135.35 191.011 134.621 190.858C134.427 190.818 133.588 190.884 133.298 190.875C132.339 190.846 128.58 190.739 131.167 189.481C129.719 188.523 129.541 189.009 128.233 189.887C128.569 188.073 126.645 189.102 125.75 189.329C126.388 188.294 124.804 187.194 124.289 186.495C124.474 187.572 124.377 188.777 122.818 188.089C122.43 187.917 122.517 187.156 122.209 187.032C121.645 186.804 121.33 187.218 121.128 187.195C120.928 187.173 120.509 187.284 120.091 187.127C119.547 186.922 119.809 186.193 119.12 186.084C118.671 186.014 118.344 186.674 117.796 186.679C117.514 186.682 117.045 186.396 116.831 186.411C116.793 186.414 116.525 185.768 116.197 185.752C115.716 185.729 115.52 187.018 115.344 187.268C114.502 188.462 113.383 189.241 112.091 189.878C114.427 192.02 119.14 191.793 122.078 192.515C123.669 192.907 125.027 193.471 126.483 194.199C126.834 194.427 127.137 194.708 127.39 195.04C127.596 194.903 127.803 194.766 128.009 194.629C128.806 194.678 129.561 194.283 130.459 194.435C133.234 194.903 135.406 196.981 138.225 197.444C139.492 197.652 140.533 197.943 141.358 196.845C142.082 195.882 141.962 193.79 141.446 192.766ZM145.25 179.965C144.621 180.496 145.378 182.227 144.161 182.039C143.297 181.906 143.469 180.566 142.791 180.282C141.9 179.909 141.362 180.793 140.524 180.711C138.963 180.557 139.052 179.194 140.372 178.595C139 178.233 138.561 179.855 137.346 179.84C135.751 179.821 136.132 177.939 134.774 177.627C134.186 177.492 134.383 178.355 134.001 178.463C133.238 178.677 132.706 178.309 132.031 177.985C131.427 177.696 130.997 177.136 130.336 176.946C130.036 176.86 129.272 177.018 129.052 176.857C128.607 176.533 128.209 175.271 127.772 175.105C127.861 175.138 126.427 175.857 126.222 175.925C126.348 176.458 126.639 176.521 127.097 176.115C127.097 177.318 123.756 177.692 124.441 176.206C122.634 176.954 123.98 177.339 124.16 178.384C124.232 178.804 124.476 178.792 124.404 179.236C124.371 179.441 123.423 179.264 123.435 179.543C123.515 181.338 129.235 181.89 130.319 182.048C132.562 182.376 134.685 182.927 136.848 183.606C138.459 184.111 141.234 185.559 142.948 185.469C145.412 185.34 145.733 182.125 145.25 179.965ZM150.757 161.651C151.358 159.654 149.43 155.531 146.919 156.046C146.302 156.172 146.15 156.684 145.671 156.911C145.002 157.228 143.915 157.061 143.335 157.389C142.035 158.125 142.69 159.999 141.388 160.676C143.444 161.175 149.802 164.824 150.757 161.651ZM148.377 169.408C147.492 168.932 146.056 168.871 145.452 167.955C145.151 168.163 144.582 169.428 144.043 169.235C143.791 169.145 143.531 168.459 143.549 168.46C143.068 168.446 142.973 167.795 142.238 167.868C141.564 167.936 140.81 168.746 140.209 169.049C140.312 167.04 139.797 166.848 138.168 165.772C137.811 165.537 137.513 164.652 137.184 164.294C137.499 166.403 136.704 166.414 135.021 166.731C132.91 167.128 131.595 168.261 130.75 170.3C132.548 169.949 134.868 170.372 135.577 172.305C137.012 169.682 142.229 173.301 143.917 174.042C145.17 174.593 146.627 175.332 147.677 174.05C148.417 173.147 147.993 172.061 147.977 171.258C147.973 171.006 147.712 170.992 147.736 170.616C147.767 170.138 148.39 169.946 148.377 169.408ZM129.176 210.647C129.651 210.827 132.095 210.928 132.111 210.118C132.124 209.403 127.797 210.124 129.176 210.647ZM133.147 208.028C134.997 209.168 137.066 205.15 137.746 203.993C135.806 204.241 134.859 202.618 133.716 201.384C132.628 203.767 130.977 202.508 129.24 201.712C127.192 200.773 124.947 200.766 122.849 200.013C122.194 199.778 121.59 199.429 120.951 199.16C120.436 198.967 119.923 198.77 119.412 198.567C119.049 198.24 118.92 197.837 119.026 197.36C119.198 196.958 119.08 196.705 118.674 196.6C118.191 196.744 117.698 196.828 117.194 196.85C116.385 196.69 115.223 195.927 116.199 195.105C115.153 194.155 114.106 195.099 113.098 195.515C113.338 194.833 113.576 194.151 113.816 193.468C113.316 193.681 111.833 195.753 111.682 195.741C110.723 195.669 110.823 194.383 110.272 193.864C109.954 194.256 109.863 197.18 108.613 196.195C108.079 195.774 109.229 194.339 109.513 194.013C108.083 194.336 106.835 196.043 106.448 197.368C107.127 197.466 107.755 197.33 108.331 196.958C108.7 198.803 105.284 198.055 104.731 199.02C103.648 200.907 110.692 202.218 111.61 202.393C113.447 202.743 115.615 202.873 117.298 203.688C118.911 204.467 119.293 204.69 121.178 204.836C123.329 205.003 125.428 205.712 127.509 206.264C129.316 206.743 131.545 207.04 133.147 208.028ZM93.8277 140.464C92.1289 139.853 86.4072 136.681 84.9506 138.092C85.1043 137.942 83.9002 140.43 83.9128 140.274C83.8092 141.568 83.8408 142.088 85.4337 142.709C86.5746 143.152 87.5682 142.209 88.5945 142.584C89.7218 142.995 88.9332 143.724 89.5135 144.233C90.1493 144.791 91.3752 145.032 92.1665 145.276C94.1036 145.874 96.0559 146.374 97.9837 147.019C101.906 148.33 106.06 149.551 110.091 150.479C113.104 151.172 118.217 152.894 120.993 150.86C121.264 152.016 121.926 151.858 122.845 152.027C123.567 152.159 124.871 152.516 125.513 152.535C126.58 152.566 129.547 152.286 129.139 150.789C129.251 151.201 126.831 149.79 127.25 149.702C126.222 149.919 126.555 149.401 125.713 149.113C124.613 148.737 123.463 148.757 122.34 148.359C119.509 147.356 117.135 146.054 114.147 145.425C107.322 143.989 100.412 142.834 93.8277 140.464ZM367.425 295.119C367.978 295.134 368.408 293.563 366.725 294.685C366.958 294.83 367.191 294.974 367.425 295.119ZM380.715 293.086C381.467 293.279 381.767 292.859 381.613 291.828C380.565 291.413 380.265 291.833 380.715 293.086ZM390.975 290.982C391.167 290.062 390.486 289.855 389.868 289.442C389.93 290.661 389.93 290.661 390.975 290.982ZM416.79 283.416C417.83 283.187 419.216 282.17 419.454 283.878C419.628 283.482 420.516 281.623 420.135 281.192C419.936 280.967 419.182 282.009 419.262 281.906C418.352 280.065 416.783 282.286 415.906 282.943C416.201 283.101 416.496 283.259 416.79 283.416ZM146.4 79.9505C146.042 79.1913 145.618 78.9503 145.131 79.2279C145.896 81.0035 148.485 81.966 146.4 79.9505ZM128.41 63.2826C127.768 64.4851 128.733 64.9933 129.422 65.993C129.019 64.9148 128.739 64.1677 128.41 63.2826ZM50.2188 180.664C47.9054 180.664 42.9777 179.443 41.5827 182.087C40.6595 180.29 39.6102 183.66 38.8091 184.2C38.7191 184.261 38.1422 183.82 37.8738 183.983C37.4692 184.228 37.1202 184.895 36.8884 185.291C36.1898 186.486 35.8893 187.908 35.5022 189.223C39.5426 189.223 43.6856 188.282 47.7227 187.94C50.3726 187.716 52.9706 187.709 55.6242 187.852C56.1516 187.88 57.1986 187.706 57.6496 187.806C58.1077 187.907 58.9383 188.84 59.4433 188.69C58.6585 190.163 48.6084 193.729 47.8416 192.098C48.7502 191.548 50.7679 191.126 50.7663 189.797C50.7647 188.309 48.8734 188.312 47.8711 188.355C45.6788 188.451 42.0075 189.181 41.1088 191.461C40.7238 192.438 40.6055 194.898 41.0287 195.842C41.3018 196.451 41.7643 197.183 42.4973 197.307C42.7977 197.358 43.2307 196.958 43.2766 196.968C44.7806 197.287 47.5646 198.495 49.205 196.792C50.3878 198.323 56.0856 196.651 57.8301 196.073C60.8808 195.063 65.0816 193.676 66.9346 190.83C69.1935 187.36 64.6011 184.428 61.9644 183.018C58.3602 181.09 54.2423 180.666 50.2188 180.664ZM34.8232 188.686C34.1137 188.887 33.4047 189.087 32.6958 189.287C32.8856 190.531 35.6832 189.547 34.8232 188.686ZM13.3863 233.883C13.1682 228.901 14.6084 224.514 15.4401 219.696C15.6462 218.501 15.4357 216.413 16.3432 215.431C17.2097 214.492 19.144 215.255 19.2209 213.595C20.0744 214.595 19.9882 214.804 21.0402 213.654C20.8482 214.147 20.8204 214.649 20.9568 215.159C21.6096 214.785 23.9752 213.543 23.7762 215.241C25.7214 214.811 25.1581 213.594 26.2679 212.666C26.4254 212.534 27.0586 213.002 27.3056 212.803C27.7517 212.441 27.9726 212.113 28.3489 211.647C28.8271 212.225 29.4783 212.643 30.0629 213.1C30.4026 212.36 31.0641 211.817 31.8592 211.637C31.1159 213.192 29.2781 215.206 31.7987 216.091C33.3033 216.619 35.7677 215.972 37.3612 216.095C43.2673 216.553 49.7361 215.266 55.4464 213.859C61.3127 212.414 67.2449 210.374 72.5206 207.392C73.6451 206.756 74.3535 206.003 75.322 205.215C76.2632 204.448 76.9477 204.327 78.0793 203.837C80.1161 202.954 81.979 201.539 83.5283 199.962C86.8598 196.57 89.9552 192.135 89.0276 187.17C88.1027 182.221 84.7008 178.353 81.0606 175.094C76.7617 171.245 71.9076 168.032 66.7563 165.441C64.4528 164.283 58.5609 159.932 56.2852 162.478C54.8307 164.104 55.6487 166.179 57.636 166.541C58.1263 166.63 58.6383 166.301 59.134 166.526C59.8484 166.851 59.597 167.235 59.8921 167.506C60.4041 167.977 60.9484 168.711 61.7135 169.119C64.384 170.543 66.9657 171.671 69.5185 173.405C70.6953 174.204 71.828 174.548 72.8652 175.245C73.897 175.938 74.1315 177.086 75.5189 176.378C75.0248 178.396 77.9915 180.556 79.1541 181.793C80.9554 183.707 83.1149 186.15 82.2746 188.982C80.6293 194.526 73.1957 198.737 68.4387 201.174C62.5021 204.214 55.9552 206.635 49.3451 207.637C46.0589 208.135 42.6625 208.443 39.3517 208.758C36.7739 209.004 32.818 208.104 30.9633 210.425C30.906 207.718 22.451 207.957 20.6513 207.611C24.2593 195.278 31.3439 184.313 38.9176 174.068C42.6347 169.039 46.2852 163.867 50.522 159.256C55.1607 154.209 60.4603 149.699 65.4955 145.055C75.3716 135.946 86.5414 127.816 97.9074 120.655C109.247 113.51 120.991 106.479 133.415 101.385C147.604 95.5669 162.543 91.7402 177.497 88.4813C175.469 85.8963 172.169 84.6355 169.571 82.7443C168.662 82.0822 167.433 80.4931 166.251 80.276C164.972 80.0404 163.965 81.4169 163.054 82.1078C160.44 84.0907 158.632 83.2487 155.638 83.1293C153.847 83.0578 149.605 84.0553 148.849 81.6323C147.845 82.9695 149.302 84.0416 150.047 85.0222C149.504 85.7791 149.067 84.9938 148.531 84.8755C148.366 84.7386 148.201 84.6011 148.036 84.4643C147.77 84.0793 147.53 84.0771 147.317 84.4566C146.997 84.9376 146.675 84.8313 146.351 84.1371C146.262 84.0814 146.174 84.0253 146.085 83.9696C145.698 83.7635 145.324 83.4374 144.964 83.1805C142.244 81.2364 139.819 79.5802 136.816 78.1481C134.294 76.9462 135.65 74.6465 133.987 73.0224C133.611 72.6549 132.978 72.8392 132.575 72.5278C132.182 72.2219 132.122 71.875 131.835 71.5473C131.144 70.7593 131.966 69.8447 130.204 70.8094L130.84 67.2314C127.384 70.5842 127.397 60.936 126.925 59.5083C126.987 59.697 126.615 58.236 126.615 58.2485C126.514 55.3533 126.118 53.2548 129.509 53.0869C128.226 52.2792 127.833 53.8563 127.24 52.2236C126.944 51.4056 127.87 49.9997 126.393 50.527C126.082 48.7885 126.39 47.3815 126.777 45.692C127.174 43.9627 126.94 42.8088 126.922 41.0795C126.902 39.1179 127.821 37.1465 128.114 35.2149C128.345 33.7021 128.107 31.3162 130.063 31.8719C130.338 31.4417 129.372 30.1181 129.411 29.4637C129.472 28.4472 130.576 27.4143 130.888 26.4382C131.348 26.9126 131.996 27.0707 132.621 26.8564C132.034 25.5302 132.585 25.0846 133.147 23.941C133.47 23.2861 133.275 22.5629 133.965 22.0936C134.36 21.8242 135.034 22.2779 135.344 21.9622C136.008 21.286 135.763 20.3889 136.22 19.4978C136.793 18.3804 138.102 17.5269 139.004 16.6882C144.077 11.9737 149.586 8.37061 156.333 6.52844C163.139 4.66991 171.074 4.00405 177.858 6.14779C180.569 7.00453 182.977 6.91673 185.417 8.51676C186.208 9.03593 186.293 8.89687 186.695 9.76233C186.788 9.9641 185.945 10.5013 186.461 10.8312C187.022 11.1895 187.641 10.4609 187.927 9.85613C191.457 12.4116 194.765 15.8184 196.776 19.7247C198.774 23.6062 198.957 28.1663 199.72 32.3846C203.239 28.3643 207.999 26.4371 213.174 28.3698C217.684 30.0538 221.179 33.7556 222.062 38.5513C222.6 41.4749 222.012 44.4356 220.684 47.0734C220.11 48.2131 219.415 49.4751 218.359 50.2424C217.524 50.8488 216.094 50.7637 215.701 51.8577C215.098 53.5335 218.579 57.153 219.482 58.6199C221.117 61.2747 222.635 64.0161 223.792 66.9157C227.937 61.0603 231.905 54.6651 236.618 49.2662C241.066 44.1705 246.369 39.6005 251.57 35.2934C262.365 26.3542 273.589 17.9561 285.664 10.8345C296.907 4.2031 310.489 0.521491 323.592 1.82322C336.395 3.09551 346.197 11.1928 354.445 20.5318C370.305 38.488 380.019 64.0815 380.968 87.9845C381.253 95.165 380.706 102.252 378.932 109.216C378.088 112.533 378.21 115.794 377.72 119.153C377.166 122.942 376.207 126.717 375.281 130.429C371.751 144.568 367.254 158.696 362.208 172.367C359.585 179.476 356.41 186.426 352.116 192.695C350.132 195.59 347.563 197.856 345.428 200.605C343.358 203.272 342.811 206.545 342.355 209.817C341.263 217.663 340.539 225.542 339.883 233.434C339.604 236.779 339.278 240.094 338.836 243.415C338.449 246.311 339.421 246.168 341.857 247.151C341.363 244.55 353.001 246.32 354.1 246.498C355.296 246.691 356.562 246.693 357.504 246.847C358.557 247.018 359.588 247.267 360.801 247.232C362.584 247.18 365.922 246.725 366.602 249.001C367.071 246.362 370.165 249.247 367.876 248.758C370.225 249.02 372.623 248.583 375.002 248.804C377.727 249.057 380.476 249.299 383.183 249.709C385.067 249.994 386.865 250.72 388.752 250.93C391.168 251.2 393.688 251.175 396.127 251.39C405.123 252.183 414.446 254.146 423.19 256.392C425.171 256.901 427.447 257.263 429.339 258.08C429.846 258.298 430.302 258.786 430.787 258.974C431.601 259.288 431.489 259.071 432.212 259.215C436.541 260.08 441.008 261.494 445.337 262.603C447.738 263.219 451.644 263.774 453.602 265.45C454.48 266.2 455.247 267.531 453.841 268.384C452.717 269.066 451.112 267.978 450.203 267.39C451.013 269.502 452.542 270.555 451.716 272.958C451.064 274.857 449.593 277.197 447.329 275.972C447.026 276.677 446.903 278.08 446.011 278.339C445.208 278.571 444.628 277.555 443.842 277.794C443.56 277.88 443.667 278.412 443.415 278.551C442.981 278.79 442.541 278.891 442.044 279.06C441.616 279.205 440.928 279.502 440.482 279.534C440.199 279.554 439.532 279.07 439.534 279.07C438.884 279.169 438.535 280.413 438.067 280.772C437.459 281.239 436.957 281.345 436.197 281.514C434.615 281.865 432.577 282.467 431.533 280.848C431.772 282.004 430.2 281.891 429.506 282.038C429.583 281.428 429.919 280.871 430.438 280.536C428.887 280.639 429.516 282.18 428.37 282.588C427.553 282.877 427.646 282.141 427.021 282.059C426.197 281.952 425.572 282.55 424.286 281.998C424.008 283.237 423.906 284.486 422.385 284.671C421.492 284.779 419.41 283.167 419.528 284.509C417.534 283.924 416.777 284.319 415.735 286.077C415.559 284.998 414.706 285.311 413.924 285.244C412.685 285.138 412.653 285.238 411.692 284.536C411.604 284.473 410.849 282.741 410.513 283.817C410.362 284.299 411.36 285.433 411.73 285.722C411.271 285.954 409.766 286.767 409.188 286.618C408.687 286.489 408.685 285.633 408.084 285.589C408.231 286.081 408.378 286.573 408.525 287.065C407.355 287.235 406.377 286.452 405.453 285.878C404.572 288.107 402.053 286.851 400.683 288.528C399.958 289.416 399.924 290.09 398.543 290.321C397.131 290.559 395.896 289.939 394.696 291.104C395.076 290.381 396.025 289.781 395.082 289.004C394.441 289.914 394.11 291.01 393.37 291.857C393.268 291.426 393.166 290.996 393.064 290.565C391.137 292.627 388.71 292.645 386.241 293.788V292.279C384.473 294.978 384.378 293.27 382.266 292.168C382.41 292.961 382.553 293.755 382.697 294.548C381.177 294.433 379.757 296.234 378.509 294.704C377.756 295.968 376.842 295.346 375.607 295.748C374.905 295.976 374.382 296.668 373.698 296.918C372.674 297.293 372.368 297.276 371.403 297.602C370.545 297.892 370.058 298.457 368.984 298.638C368.286 298.756 367.654 298.747 366.986 298.715C366.728 298.703 366.813 298.122 366.24 298.258C365.354 298.468 364.694 299.579 364.056 300.149C363.096 297.736 360.409 300.968 359.11 301.398C358.985 300.78 359.008 300.034 358.56 299.526C358.034 300.678 357.834 301.646 356.742 302.388C356.113 302.816 355.188 303.122 354.46 303.279C354 303.377 353.165 303.259 352.876 303.401C352.383 303.642 352.201 304.288 351.703 304.348C351.411 304.384 350.977 303.613 350.757 303.673C349.754 303.947 349.197 305.166 348.183 305.825C345.168 307.787 341.374 307.977 338.014 308.407C337.171 308.515 337.049 308.284 336.364 308.779C335.999 309.044 336.164 309.847 335.715 310.073C334.022 310.921 334.021 309.111 333.666 307.986C333.106 308.724 333.009 309.7 332.243 310.288C331.825 310.276 331.406 310.285 330.988 310.316C330.752 310.585 330.598 310.896 330.526 311.247C329.511 311.932 328.362 311.694 327.315 312.208C326.971 312.377 326.362 313.396 325.939 313.689C325.182 314.213 324.01 314.494 323.145 314.722C321.33 315.199 318.728 314.565 317.648 316.46C316.214 314.923 316.769 316.758 315.795 317.144C315.221 317.371 314.356 316.466 313.719 316.556C312.571 316.718 312.157 317.96 311.79 318.864C311.091 318.708 311.571 316.73 311.59 316.297C310.721 316.194 310.528 318.482 310.378 318.985C309.007 318.324 311.258 316.269 309.783 315.609C309.919 317.361 308.523 318.802 311.015 319.053C310.671 320.108 302.633 321.279 302.075 320.349C301.951 322.07 300.795 320.462 300.368 319.873C300.32 320.877 300.662 322.302 299.535 322.769C298.77 323.086 297.043 322.266 296.743 321.516C296.4 322.662 295.825 322.625 295.11 323.353C294.62 323.853 294.296 324.72 293.781 325.139C292.834 325.909 291.072 325.792 289.968 325.619C287.809 325.282 288.064 324.868 287.295 327.113C287.121 326.261 286.575 324.479 285.624 325.804C285.019 326.646 286.308 328.5 286.68 329.239C285.848 328.782 285.022 328.24 284.075 328.043C284.022 328.335 283.973 328.954 284.113 329.224C284.085 329.169 283.075 329.847 282.7 330.034C282.79 329.989 282.404 328.303 282.415 328.358C281.083 329.18 282.007 330.753 280.827 331.563C280.522 331.773 279.807 331.529 279.438 331.656C278.796 331.879 278.241 332.48 277.67 332.832C278.126 332.221 278.06 331.196 278.029 330.491C277.739 330.651 277.532 331.251 277.239 331.298C277.128 331.316 275.98 331.469 275.988 331.463C274.793 332.3 275.039 332.405 276.065 333.411C275.698 333.987 274.167 332.986 273.752 332.82C273.665 333.045 273.643 333.863 273.48 334.009C273.381 334.251 273.282 334.494 273.183 334.736C272.877 334.508 272.549 334.431 272.198 334.507C271.977 334.584 270.249 335.287 270.132 335.047C270.51 334.924 270.853 334.737 271.159 334.484C270.162 333.588 269.506 333.111 268.587 334.406C268.471 334.569 268.869 335.155 268.751 335.367C268.312 336.159 267.41 336.789 266.797 337.434C266.544 336.544 267.134 334.314 265.726 334.395C264.601 334.459 263.745 337.185 264.134 338.032C263.687 337.543 261.017 337.057 260.513 337.21C259.088 337.642 259.488 338.959 257.735 337.029C256.539 337.854 257.593 338.166 257.378 339.172C257.062 339.238 256.763 339.16 256.48 338.938C256.692 343.212 253.538 339.946 251.49 340.599C250.686 340.856 250.481 341.768 249.618 342.035C249.162 342.175 248.654 341.842 248.21 341.923C247.854 341.873 247.501 341.81 247.15 341.735C246.705 341.512 246.496 341.761 246.523 342.483C245.808 342.854 246.078 342.999 245.242 343.071C244.703 343.118 244.207 342.558 243.595 342.653C242.538 342.819 242.678 343.63 242.003 344.053C241.395 344.435 240.71 344.423 239.962 344.349C239.581 344.311 238.51 343.82 238.382 343.818C237.582 343.807 238.016 343.637 237.056 344.324C236.309 344.859 235.995 345.206 235.078 345.453C234.026 345.735 232.16 346.352 231.452 345.591C230.496 347.024 229.747 345.973 228.485 346.067C227.84 346.116 227.737 346.368 227.162 346.468C226.231 346.631 225.069 346.49 224.078 346.808C222.517 347.31 222.34 347.562 220.745 347.629C220.457 347.517 220.169 347.404 219.881 347.292C219.795 347.772 219.569 348.164 219.202 348.468C218.309 348.655 217.723 348.205 216.987 347.711C216.438 349.42 214.658 349.569 213.136 349.794C210.679 350.156 208.329 350.354 205.961 351.162C203.96 351.844 201.955 352.609 200.03 353.482C198.337 354.251 196.738 355.4 194.822 354.861C190.48 353.638 186.272 349.181 182.639 346.621C178.337 343.59 173.696 341.093 169.201 338.368C151.302 327.519 132.394 318.341 114.746 307.089C105.112 300.945 96.1721 293.646 85.8253 288.676C87.2982 294.762 89.8058 300.941 89.3526 307.313C89.1704 309.881 88.4141 312.915 86.4225 314.707C83.9602 316.924 81.2177 315.513 78.8629 313.929C73.8169 310.537 70.4521 305.586 66.6756 300.938C62.2087 295.438 58.7441 289.53 55.4639 283.262C54.678 284.366 55.2757 286.214 55.2643 287.437C55.249 288.998 54.828 290.502 54.1043 291.895C52.236 295.491 48.6804 296.363 45.4677 293.899C39.2846 289.158 35.6963 280.713 32.3833 273.913C30.4937 277.428 27.8117 281.853 23.2739 279.342C19.5296 277.27 17.3297 272.641 16.1844 268.72C12.8404 257.274 13.9 245.615 13.3863 233.883Z" fill="#211814"/>
<path fill-rule="evenodd" clip-rule="evenodd" d="M19.0649 165.133C19.4919 164.096 19.6795 164.266 18.8942 163.26C18.2823 163.863 18.772 164.36 19.0649 165.133ZM0.141472 227.909C1.34232 224.495 0.600632 220.788 1.32976 217.287C1.6646 215.68 2.19304 214.121 2.38336 212.486C2.46789 211.76 3.11414 208.493 2.67404 207.979C4.02868 207.158 4.03303 206.551 4.34606 204.943C3.86343 204.431 3.92398 203.994 4.52822 203.632C4.92305 203.154 5.3184 202.676 5.71378 202.198C3.98558 203.043 5.0081 200.88 5.18424 199.634C5.32385 198.649 5.41767 197.622 5.74596 196.678C6.15006 195.518 7.04879 194.931 5.17935 194.931C5.7945 194.231 6.7145 193.509 7.02098 192.652C7.46162 191.419 6.73467 189.79 7.6334 188.701C8.13457 188.093 10.7179 187.855 10.2647 186.543C10.034 185.875 8.98694 186.374 8.66301 185.905C7.38963 184.064 11.1492 183.301 11.3335 182.518C11.5724 181.503 10.2145 181.276 10.1311 180.326C10.0498 179.397 11.4944 177.87 11.8762 177.039C12.3965 177.166 12.9669 177.989 13.5624 177.595C13.6753 177.521 13.5057 174.304 13.6409 173.877C13.774 173.457 14.0461 172.344 14.1432 172.138C14.5287 171.319 15.6319 170.92 15.807 169.953C15.9117 169.377 13.6507 168.503 16.2438 168.476C15.3124 166.834 17.0188 165.837 17.6399 164.434C18.4383 162.631 18.9089 160.683 19.7291 158.87C20.5264 157.108 21.4181 155.436 22.5676 153.878C23.6082 152.467 24.0581 151.11 24.8897 149.62C25.056 149.49 25.2224 149.359 25.3887 149.228C26.0824 149.328 26.3049 149.012 26.0562 148.28C26.5868 147.494 26.9811 146.655 27.449 145.835C27.9927 144.881 28.7262 144.103 29.2879 143.176C30.0334 141.946 30.2537 140.559 31.0963 139.325C32.1319 137.808 33.2967 136.469 34.2571 134.895C35.4601 132.923 36.7924 131.697 38.3063 130.169C39.0267 129.442 39.1134 127.625 39.9963 126.592C40.9577 125.467 41.9072 125.162 42.5736 123.685C43.4407 121.764 44.713 120.846 45.9514 119.186C46.9734 117.816 47.4724 116.242 48.598 114.916C49.566 113.778 50.6649 112.738 51.6983 111.659C53.0027 110.296 53.9658 108.64 55.3237 107.344C55.128 107.531 56.5055 106.44 56.4362 106.475C56.7411 106.319 57.7249 106.194 57.5815 106.279C59.6309 105.074 62.1989 100.665 65.2828 103.001C66.9052 104.23 66.127 106.483 64.9943 107.707C64.5079 108.233 61.9802 110.824 61.4343 109.731C60.8448 110.567 59.0294 114.606 57.5193 113.448C57.6731 114.829 56.8736 114.371 56.3457 115.304C55.9983 115.919 56.1674 116.221 55.9143 117.182C55.2179 119.824 52.561 122.404 51.1459 124.708C47.6235 130.441 43.7379 135.878 40.2122 141.618C36.8524 147.088 33.0895 152.279 29.866 157.823C26.1996 164.127 21.6318 170.078 18.8697 176.874C18.7764 177.102 18.0091 177.464 17.8188 177.807C17.4867 178.403 17.5581 179.434 17.3443 180.109C16.6032 182.449 15.4018 184.754 14.033 186.692C12.8322 188.393 12.7449 190.705 11.9187 192.7C10.7533 195.513 9.52247 198.296 8.39034 201.122C6.62833 205.521 5.43456 209.738 4.21681 214.331C3.4277 217.307 2.80003 220.282 2.54863 223.356C2.3174 226.182 2.26066 229.126 1.21469 231.802C0.501381 230.701 -0.338974 229.274 0.141472 227.909Z" fill="#211814"/>
<path fill-rule="evenodd" clip-rule="evenodd" d="M403.225 288.477C404.491 288.221 405.683 287.88 405.951 286.426C406.135 287.111 406.318 287.797 406.502 288.482C404.96 288.831 403.418 289.181 401.876 289.53C402.236 288.896 402.499 288.624 403.225 288.477Z" fill="#211814"/>
<path fill-rule="evenodd" clip-rule="evenodd" d="M399.827 49.8657C399.731 49.4556 399.606 49.0537 399.453 48.6616C399.349 49.0439 398.839 49.8706 399.136 50.2311C399.514 50.6886 399.897 50.4296 399.827 49.8657ZM393.619 38.0547C393.203 38.2379 392.304 38.2734 391.788 38.4282C393.127 39.5795 393.362 39.2408 395.093 39.1072C395.169 37.9423 394.696 37.5808 393.619 38.0547ZM405.219 66.8913C405.04 66.8962 404.86 66.9006 404.679 66.905C404.668 66.3978 404.681 65.8912 404.72 65.3851C402.895 65.7837 403.928 62.5951 404.501 61.9342C402.721 61.9936 401.854 56.358 401.29 55.2723C400.789 54.3081 400.222 53.9351 399.856 52.7593C399.536 51.7303 399.19 50.8043 398.728 49.8308C397.667 47.5927 396.274 45.5602 396.531 42.9519C395.632 44.9091 394.841 42.9551 394.271 42.0193C393.352 40.5115 391.11 38.5875 390.872 36.7966C390.661 35.22 391.833 35.1366 391.141 33.6745C390.442 32.1944 389.867 32.3428 388.642 31.8694C387.827 31.5542 387.666 31.937 387.091 30.9085C386.718 30.2426 386.85 29.7464 386.373 29.2005C386.176 29.3717 385.952 29.4426 385.701 29.4132C385.313 28.9022 385.059 28.3329 384.939 27.7052C384.623 26.8577 384.47 26.0795 383.995 25.2724C383.544 24.5078 382.743 22.4622 382.319 22.0935C381.869 21.702 379.314 21.901 379.325 21.9152C378.269 20.5878 380.206 19.2654 377.524 19.5451C378.054 18.5592 376.194 17.3354 375.654 16.7868C374.305 15.4174 374.198 14.7838 373.913 13.0616C373.769 12.1836 374.712 12.285 373.447 12.0849C372.924 12.0025 372.423 12.6711 372.045 12.5729C370.379 12.141 372.122 12.2234 371.662 11.5444C371.517 11.329 370.776 10.4597 370.783 10.469C370.819 10.5126 370.616 9.71261 370.448 9.50702C370.13 9.47975 369.816 9.42413 369.508 9.34014C369.352 9.02384 369.213 8.69991 369.093 8.36834C367.888 7.36273 366.084 6.91282 365.25 5.80796C364.71 5.09356 364.872 4.39388 364.175 3.68166C363.511 3.00326 362.633 3.49461 362.502 1.9622C362.334 0.0125965 364.428 -0.855043 365.285 1.11255C367.608 -1.74886 377.319 8.74954 378.441 10.1211C383.313 16.0751 388.102 22.1764 392.099 28.7604C395.993 35.1758 399.19 41.9261 401.688 49.0019C402.893 52.4136 403.626 55.81 404.362 59.3389C404.609 60.5206 406.455 65.787 405.686 66.9655C405.531 66.941 405.375 66.9159 405.219 66.8913Z" fill="#211814"/>
<path fill-rule="evenodd" clip-rule="evenodd" d="M21.6766 212.902C20.8558 212.355 20.8558 212.355 20.7119 211.32C21.8124 211.521 21.8124 211.521 21.6766 212.902Z" fill="#211814"/>
<path fill-rule="evenodd" clip-rule="evenodd" d="M426.233 282.502C426.222 282.501 426.214 282.504 426.208 282.51C426.226 282.487 426.29 282.421 426.233 282.502Z" fill="#211814"/>
<path fill-rule="evenodd" clip-rule="evenodd" d="M426.783 283.057C426.529 283.605 426.122 283.741 425.56 283.465C425.339 283.781 427.481 281.491 426.783 283.057Z" fill="#211814"/>
<path fill-rule="evenodd" clip-rule="evenodd" d="M389.74 32.9092C391.025 35.4292 389.416 33.5963 389.498 34.4149C389.444 33.8772 389.221 33.111 389.74 32.9092Z" fill="#211814"/>
<path fill-rule="evenodd" clip-rule="evenodd" d="M180.769 71.9124C180.213 76.4311 174.031 74.294 172.64 71.5607C171.627 69.5708 169.07 61.7075 171.821 60.0463C173.861 58.815 174.297 64.1222 174.8 65.3078C175.642 67.2934 176.3 65.8864 178.174 66.3958C180.241 66.958 181 70.0386 180.769 71.9124Z" fill="#211814"/>
<path fill-rule="evenodd" clip-rule="evenodd" d="M187.524 63.6422C185.314 64.133 183.148 63.88 181.579 62.1349C180.709 61.1685 179.553 59.2516 181.118 58.3164C182.536 57.4695 184.145 59.4529 185.638 59.0428C187.67 58.4849 186.624 56.3068 187.321 54.8682C189.882 56.3428 191.31 62.8013 187.524 63.6422Z" fill="#211814"/>
<path fill-rule="evenodd" clip-rule="evenodd" d="M185.233 75.0527C187.363 75.0484 187.38 77.6682 186.268 78.7911C185.204 79.8654 182.513 80.9528 181.071 80.1173C178.225 78.4682 183.509 75.2229 185.233 75.0527Z" fill="#211814"/>
<path fill-rule="evenodd" clip-rule="evenodd" d="M309.172 179.234C308.717 179.454 307.377 180.591 306.812 180.078C307.609 179.275 308.407 178.471 309.204 177.668C309.645 178.151 309.947 178.857 309.172 179.234Z" fill="#211814"/>
<path fill-rule="evenodd" clip-rule="evenodd" d="M319.239 64.2959C319.465 64.465 319.692 64.6335 319.918 64.802C319.154 65.4384 319.173 65.6276 318.403 65.025C318.632 64.724 318.91 64.4813 319.239 64.2959Z" fill="#211814"/>
<path fill-rule="evenodd" clip-rule="evenodd" d="M174.87 214.22C175.298 213.451 176.107 214.869 176.654 215.1C177.544 215.475 178.274 213.49 178.019 215.869C180.03 214.948 181.252 217.061 182.549 218.162C184.382 219.717 186.624 220.561 187.846 222.769C182.091 224.116 175.768 219.154 171.477 215.895C170.777 215.363 167.277 212.678 169.649 212.419C170.619 212.313 174.15 215.513 174.87 214.22Z" fill="#211814"/>
<path fill-rule="evenodd" clip-rule="evenodd" d="M176.577 209.56C175.449 208.673 177.881 208.591 178.265 208.498C178.232 209.204 178.2 209.91 178.167 210.616C177.622 210.286 177.092 209.934 176.577 209.56Z" fill="#211814"/>
<path fill-rule="evenodd" clip-rule="evenodd" d="M180.812 212.521C180.475 212.311 179.535 211.654 180.174 211.164C180.752 211.532 181.165 212.132 181.255 212.816C181.108 212.718 180.96 212.62 180.812 212.521Z" fill="#211814"/>
<path fill-rule="evenodd" clip-rule="evenodd" d="M274.018 155.257C274.738 155.539 275.061 155.986 274.985 156.598C273.878 156.371 274.089 155.326 274.018 155.257Z" fill="#211814"/>
</svg>
